<svg width="93" height="27" viewBox="0 0 93 27" fill="none" xmlns="http://www.w3.org/2000/svg">
<path d="M3.136 22H0.256V5.68H3.136V22ZM13.2308 12.16C12.8308 12.16 12.3748 12.256 11.8628 12.448C11.3508 12.64 10.7428 13.016 10.0388 13.576V22H7.27881V9.832H9.89481V11.464C10.6468 10.808 11.3588 10.336 12.0308 10.048C12.7028 9.744 13.3828 9.592 14.0708 9.592C15.2388 9.592 16.1268 9.968 16.7348 10.72C17.3428 11.456 17.6468 12.496 17.6468 13.84V22H14.8868V14.176C14.8868 12.832 14.3348 12.16 13.2308 12.16ZM28.3264 12.232H24.5344V22H21.7744V12.232H19.8064V9.832H21.7744V8.56C21.7744 7.232 22.1104 6.144 22.7824 5.296C23.4544 4.432 24.5344 4 26.0224 4C26.5664 4 27.1264 4.056 27.7024 4.168C28.2784 4.28 28.7984 4.424 29.2624 4.6L28.5904 6.976C27.8224 6.72 27.1344 6.592 26.5264 6.592C25.8864 6.592 25.3904 6.736 25.0384 7.024C24.7024 7.296 24.5344 7.808 24.5344 8.56V9.832H28.3264V12.232Z" fill="#82D2FF"/>
<path d="M56.256 22V5.68H58.896C60.16 7.328 61.36 9.072 62.496 10.912C63.632 12.736 64.664 14.616 65.592 16.552L65.376 11.68V5.68H68.136V22H65.496C64.472 19.984 63.408 17.96 62.304 15.928C61.216 13.88 60.056 11.952 58.824 10.144L59.016 15.76V22H56.256ZM81.5188 21.304C80.6868 21.64 79.9028 21.88 79.1668 22.024C78.4308 22.168 77.7348 22.24 77.0788 22.24C75.2708 22.24 73.9028 21.728 72.9748 20.704C72.0468 19.68 71.5828 18.32 71.5828 16.624V15.184C71.5828 14.048 71.7908 13.064 72.2068 12.232C72.6228 11.4 73.2148 10.752 73.9828 10.288C74.7508 9.824 75.6548 9.592 76.6948 9.592C77.5428 9.592 78.3348 9.768 79.0708 10.12C79.8228 10.456 80.4308 10.992 80.8948 11.728C81.3748 12.448 81.6148 13.376 81.6148 14.512C81.6148 14.848 81.5908 15.208 81.5428 15.592C81.4948 15.96 81.4148 16.352 81.3028 16.768H74.2468C74.2788 17.76 74.5268 18.504 74.9908 19C75.4548 19.496 76.1988 19.744 77.2228 19.744C77.7668 19.744 78.3268 19.68 78.9028 19.552C79.4948 19.424 80.1028 19.232 80.7268 18.976L81.5188 21.304ZM76.6948 11.92C75.9588 11.92 75.3828 12.16 74.9668 12.64C74.5668 13.104 74.3348 13.776 74.2708 14.656H78.8788C78.8948 14.576 78.9028 14.504 78.9028 14.44C78.9028 14.36 78.9028 14.288 78.9028 14.224C78.9028 13.456 78.6868 12.88 78.2548 12.496C77.8228 12.112 77.3028 11.92 76.6948 11.92ZM92.1144 21.592C91.6984 21.784 91.2184 21.936 90.6744 22.048C90.1304 22.176 89.5784 22.24 89.0184 22.24C88.0904 22.24 87.3464 22.048 86.7864 21.664C86.2264 21.28 85.8184 20.744 85.5624 20.056C85.3224 19.368 85.2024 18.584 85.2024 17.704V12.232H83.2344V9.832H85.2024V6.664H87.9624V9.832H91.7544V12.232H87.9624V17.704C87.9624 18.44 88.0984 18.952 88.3704 19.24C88.6584 19.512 89.0664 19.648 89.5944 19.648C89.8504 19.648 90.1224 19.624 90.4104 19.576C90.7144 19.512 91.0504 19.408 91.4184 19.264L92.1144 21.592Z" fill="#82D2FF"/>
<path d="M40.5 2.25002C34.2967 2.25002 29.25 7.29677 29.25 13.5C29.25 19.7033 34.2967 24.75 40.5 24.75C46.7032 24.75 51.75 19.7033 51.75 13.5C51.75 7.29677 46.7032 2.25002 40.5 2.25002ZM31.5 13.5C31.5 12.4886 31.6755 11.5178 31.9849 10.6099L33.75 12.375L36 14.625V16.875L38.25 19.125L39.375 20.25V22.4224C34.9436 21.8655 31.5 18.081 31.5 13.5ZM47.6212 18.9821C46.8866 18.3904 45.7729 18 45 18V16.875C45 16.2783 44.7629 15.706 44.341 15.284C43.919 14.8621 43.3467 14.625 42.75 14.625H38.25V11.25C38.8467 11.25 39.419 11.013 39.841 10.591C40.2629 10.169 40.5 9.59675 40.5 9.00002V7.87502H41.625C42.2217 7.87502 42.794 7.63796 43.216 7.21601C43.6379 6.79405 43.875 6.22175 43.875 5.62502V5.16264C47.169 6.50027 49.5 9.73127 49.5 13.5C49.4998 15.4853 48.8388 17.414 47.6212 18.9821Z" fill="#82D2FF"/>
</svg>
